<?xml version="1.0" encoding="utf-8"?>
<!-- Generator: Adobe Illustrator 22.0.0, SVG Export Plug-In . SVG Version: 6.00 Build 0)  -->
<svg version="1.1" xmlns="http://www.w3.org/2000/svg" xmlns:xlink="http://www.w3.org/1999/xlink" x="0px" y="0px"
	 viewBox="0 0 1920 1080" style="enable-background:new 0 0 1920 1080;" xml:space="preserve"><style type="text/css" media="screen">
	     <![CDATA[
	     @keyframes catsdance {
	       0%   {transform: translateY(0)}
	       25%  {transform: translateY(40px)}
	       75%  {transform: translateY(100px)}
	       100% {transform: translateY(0)}
	     }
	     #Cats{
	     animation: catsdance 1s ease-in infinite;
	     }
	     ]]>
	 </style>
<style type="text/css">
	.st0{fill:#93278F;}
	.st1{fill:#662D91;}
	.st2{fill:#29ABE2;stroke:#1B1464;stroke-width:4;stroke-miterlimit:10;}
	.st3{fill:#C1272D;stroke:#F15A24;stroke-width:4;stroke-miterlimit:10;}
	.st4{fill:#FCEE21;stroke:#22B573;stroke-width:4;stroke-miterlimit:10;}
	.st5{fill:#FF00FF;}
	.st6{fill:#B3B3B3;}
	.st7{fill:#CCCCCC;}
</style>
<g id="Floors">
	<g>
		<ellipse class="st0" cx="997" cy="820" rx="891" ry="180"/>
	</g>
</g>
<g id="Cats">
	<g id="Cat1">
		<polyline class="st2" points="1256,745 1256,556 1228,556 1228,473 1256,473 1256,419 1285,419 1285,391 1312,391 1312,418
			1339,418 1339,444 1392,444 1392,420 1422,420 1422,391 1448,391 1448,419 1474,419 1474,473 1503,473 1503,527 1610,527
			1610,559 1664,559 1664,475 1638,475 1638,423 1664,423 1664,396 1718,396 1718,421 1747,421 1747,581 1719,581 1719,664
			1747,664 1747,772 1718,772 1718,802 1665,802 1665,778 1582,778 1582,802 1529,802 1529,771 1475,771 1475,802 1420,802
			1420,773 1338,773 1338,802 1281.2,802 1281.2,761 		"/>
		<g>
			<path d="M1312.7,547.8H1300V510h12.6v-12.6h25.2V510h12.6v37.9h-12.6v12.6h-25.2V547.8z M1337.9,547.8V510h-25.2v37.9H1337.9z"/>
			<path d="M1375.8,535.2h-12.6V510h12.6V535.2z M1375.8,535.2h12.6v25.2h-12.6V535.2z M1401,535.2h-12.6V510h12.6V535.2z
				 M1401,535.2h12.6v25.2H1401V535.2z M1413.7,510h12.6v25.2h-12.6V510z"/>
			<path d="M1451.5,547.8h-12.6V510h12.6v-12.6h25.2V510h12.6v37.9h-12.6v12.6h-25.2V547.8z M1476.8,547.8V510h-25.2v37.9H1476.8z"
				/>
		</g>
	</g>
	<g id="Cat2">
		<polyline class="st3" points="1155,829 1155,640 1183,640 1183,557 1155,557 1155,503 1126,503 1126,475 1099,475 1099,502
			1072,502 1072,528 1019,528 1019,504 989,504 989,475 963,475 963,503 937,503 937,557 908,557 908,611 801,611 801,643 747,643
			747,559 773,559 773,507 747,507 747,480 693,480 693,505 664,505 664,665 692,665 692,748 664,748 664,856 693,856 693,886
			746,886 746,862 829,862 829,886 882,886 882,855 936,855 936,886 991,886 991,857 1073,857 1073,886 1129.8,886 1129.8,845 		"/>
		<g>
			<path d="M1073.1,631.8h-12.6v-50.5h12.6V631.8z M1098.3,631.8v12.6h-25.2v-12.6H1098.3z M1098.3,581.3h12.6v50.5h-12.6V581.3z"/>
			<path d="M997.3,619.2h-12.6V594h12.6V619.2z M1010,644.5h-12.6v-25.2h12.6V644.5z M1010,594h12.6v25.2H1010V594z M1035.2,644.5
				h-12.6v-25.2h12.6V644.5z M1035.2,594h12.6v25.2h-12.6V594z"/>
			<path d="M934.2,631.8h-12.6v-50.5h12.6V631.8z M959.5,631.8v12.6h-25.2v-12.6H959.5z M959.5,581.3h12.6v50.5h-12.6V581.3z"/>
		</g>
	</g>
	<g id="Layer_4">
		<polyline class="st4" points="215.5,797.1 215.5,638.3 192,638.3 192,568.6 215.5,568.6 215.5,523.3 239.9,523.3 239.9,499.7
			262.6,499.7 262.6,522.4 285.2,522.4 285.2,544.3 329.8,544.3 329.8,524.1 355,524.1 355,499.7 376.8,499.7 376.8,523.3
			398.7,523.3 398.7,568.6 423,568.6 423,614 512.9,614 512.9,640.9 558.3,640.9 558.3,570.3 536.4,570.3 536.4,526.6 558.3,526.6
			558.3,503.9 603.6,503.9 603.6,524.9 628,524.9 628,659.3 604.5,659.3 604.5,729.1 628,729.1 628,819.8 603.6,819.8 603.6,845
			559.1,845 559.1,824.8 489.4,824.8 489.4,845 444.9,845 444.9,819 399.5,819 399.5,845 353.3,845 353.3,820.6 284.4,820.6
			284.4,845 236.7,845 236.7,810.6 		"/>
		<g>
			<path d="M284.3,610.3v10.6h-31.8v-10.6H284.3z"/>
			<path d="M305.6,620.9h-10.6v-21.2h10.6V620.9z M305.6,620.9h10.6v21.2h-10.6V620.9z M326.8,620.9h-10.6v-21.2h10.6V620.9z
				 M326.8,620.9h10.6v21.2h-10.6V620.9z M337.4,599.7H348v21.2h-10.6V599.7z"/>
			<path d="M390.4,610.3v10.6h-31.8v-10.6H390.4z"/>
		</g>
	</g>
</g>
<g id="DJ">
</g>
</svg>
